<mxfile host="65bd71144e">
    <diagram name="PÃ¡gina-1" id="5_GZvxulszdD-nfJUpY4">
        <mxGraphModel dx="739" dy="386" grid="1" gridSize="10" guides="1" tooltips="1" connect="1" arrows="1" fold="1" page="1" pageScale="1" pageWidth="827" pageHeight="1169" math="0" shadow="0">
            <root>
                <mxCell id="0"/>
                <mxCell id="1" parent="0"/>
                <mxCell id="30" style="edgeStyle=orthogonalEdgeStyle;rounded=0;html=1;exitX=0.5;exitY=1;exitDx=0;exitDy=0;entryX=0.5;entryY=0;entryDx=0;entryDy=0;strokeColor=#6B6B6B;" edge="1" parent="1" source="S3fYBKhmqbnuXUQS7ZH8-10" target="26">
                    <mxGeometry relative="1" as="geometry"/>
                </mxCell>
                <mxCell id="32" style="edgeStyle=orthogonalEdgeStyle;rounded=0;html=1;exitX=1;exitY=0.5;exitDx=0;exitDy=0;strokeColor=#6B6B6B;" edge="1" parent="1" source="S3fYBKhmqbnuXUQS7ZH8-10" target="20">
                    <mxGeometry relative="1" as="geometry"/>
                </mxCell>
                <mxCell id="S3fYBKhmqbnuXUQS7ZH8-10" value="Is j[n]+...+J[max+n]&lt;br&gt;&lt;span style=&quot;background-color: initial; text-align: left;&quot;&gt;less than or equal to K?&lt;/span&gt;" style="rhombus;whiteSpace=wrap;html=1;strokeColor=#6B6B6B;" parent="1" vertex="1">
                    <mxGeometry x="120" y="150" width="170" height="110" as="geometry"/>
                </mxCell>
                <mxCell id="3" style="edgeStyle=orthogonalEdgeStyle;html=1;exitX=1;exitY=0.5;exitDx=0;exitDy=0;entryX=0;entryY=0;entryDx=0;entryDy=0;rounded=0;strokeColor=#6B6B6B;" parent="1" source="S3fYBKhmqbnuXUQS7ZH8-39" target="S3fYBKhmqbnuXUQS7ZH8-10" edge="1">
                    <mxGeometry relative="1" as="geometry"/>
                </mxCell>
                <mxCell id="S3fYBKhmqbnuXUQS7ZH8-39" value="START" style="ellipse;whiteSpace=wrap;html=1;strokeColor=#6B6B6B;" parent="1" vertex="1">
                    <mxGeometry x="80" y="120" width="40" height="40" as="geometry"/>
                </mxCell>
                <mxCell id="34" style="edgeStyle=orthogonalEdgeStyle;rounded=0;html=1;exitX=0.5;exitY=1;exitDx=0;exitDy=0;fontSize=12;strokeColor=#6B6B6B;" edge="1" parent="1" source="20" target="33">
                    <mxGeometry relative="1" as="geometry"/>
                </mxCell>
                <mxCell id="20" value="Add 1 to max" style="rounded=1;whiteSpace=wrap;html=1;strokeColor=#6B6B6B;" vertex="1" parent="1">
                    <mxGeometry x="430" y="185" width="120" height="40" as="geometry"/>
                </mxCell>
                <mxCell id="35" style="edgeStyle=orthogonalEdgeStyle;rounded=0;html=1;exitX=1;exitY=0.5;exitDx=0;exitDy=0;entryX=0;entryY=0.5;entryDx=0;entryDy=0;fontSize=12;strokeColor=#6B6B6B;" edge="1" parent="1" source="26" target="33">
                    <mxGeometry relative="1" as="geometry"/>
                </mxCell>
                <mxCell id="26" value="Add 1 to n" style="rounded=1;whiteSpace=wrap;html=1;strokeColor=#6B6B6B;" vertex="1" parent="1">
                    <mxGeometry x="145" y="370" width="120" height="40" as="geometry"/>
                </mxCell>
                <mxCell id="28" value="Yes" style="text;html=1;align=center;verticalAlign=middle;resizable=0;points=[];autosize=1;strokeColor=none;fillColor=none;" vertex="1" parent="1">
                    <mxGeometry x="310" y="180" width="40" height="30" as="geometry"/>
                </mxCell>
                <mxCell id="29" value="No" style="text;html=1;align=center;verticalAlign=middle;resizable=0;points=[];autosize=1;strokeColor=none;fillColor=none;" vertex="1" parent="1">
                    <mxGeometry x="210" y="290" width="40" height="30" as="geometry"/>
                </mxCell>
                <mxCell id="36" style="edgeStyle=orthogonalEdgeStyle;rounded=0;html=1;exitX=0.5;exitY=1;exitDx=0;exitDy=0;entryX=0;entryY=0.5;entryDx=0;entryDy=0;fontSize=12;strokeColor=#6B6B6B;" edge="1" parent="1" source="33" target="S3fYBKhmqbnuXUQS7ZH8-10">
                    <mxGeometry relative="1" as="geometry">
                        <Array as="points">
                            <mxPoint x="490" y="470"/>
                            <mxPoint x="90" y="470"/>
                            <mxPoint x="90" y="205"/>
                        </Array>
                    </mxGeometry>
                </mxCell>
                <mxCell id="38" style="edgeStyle=orthogonalEdgeStyle;rounded=0;html=1;exitX=1;exitY=0.5;exitDx=0;exitDy=0;entryX=0;entryY=0.5;entryDx=0;entryDy=0;fontSize=12;strokeColor=#6B6B6B;" edge="1" parent="1" source="33" target="37">
                    <mxGeometry relative="1" as="geometry"/>
                </mxCell>
                <mxCell id="33" value="Is max+n &amp;lt; N?" style="rhombus;whiteSpace=wrap;html=1;fontSize=12;strokeColor=#6B6B6B;" vertex="1" parent="1">
                    <mxGeometry x="425" y="345" width="130" height="90" as="geometry"/>
                </mxCell>
                <mxCell id="37" value="Print max" style="rounded=1;whiteSpace=wrap;html=1;fontSize=12;strokeColor=#6B6B6B;" vertex="1" parent="1">
                    <mxGeometry x="620" y="360" width="120" height="60" as="geometry"/>
                </mxCell>
                <mxCell id="39" value="No" style="text;html=1;align=center;verticalAlign=middle;resizable=0;points=[];autosize=1;strokeColor=none;fillColor=none;fontSize=12;" vertex="1" parent="1">
                    <mxGeometry x="555" y="360" width="40" height="30" as="geometry"/>
                </mxCell>
                <mxCell id="40" value="Yes" style="text;html=1;align=center;verticalAlign=middle;resizable=0;points=[];autosize=1;strokeColor=none;fillColor=none;fontSize=12;" vertex="1" parent="1">
                    <mxGeometry x="490" y="435" width="40" height="30" as="geometry"/>
                </mxCell>
            </root>
        </mxGraphModel>
    </diagram>
</mxfile>